<svg fill="red" viewBox="0 0 24 24"
  xmlns="http://www.w3.org/2000/svg" stroke="red">
  <g id="SVGRepo_bgCarrier" stroke-width="0"></g>
  <g id="SVGRepo_tracerCarrier" stroke-linecap="round" stroke-linejoin="round"></g>
  <g id="SVGRepo_iconCarrier">
                    {' '}
    <g data-name="Layer 2">
                      {' '}
      <g data-name="alert-circle">
                        {' '}
        <rect width="24" height="24" opacity="0"></rect>{' '}
        <path d="M12 2a10 10 0 1 0 10 10A10 10 0 0 0 12 2zm0 18a8 8 0 1 1 8-8 8 8 0 0 1-8 8z"></path>{' '}
        <circle cx="12" cy="16" r="1"></circle>{' '}
        <path d="M12 7a1 1 0 0 0-1 1v5a1 1 0 0 0 2 0V8a1 1 0 0 0-1-1z"></path>{' '}
      </g>{' '}
    </g>{' '}
  </g>
</svg>
